<svg width="171" height="61" viewBox="0 0 171 61" fill="none" xmlns="http://www.w3.org/2000/svg">
<path d="M6.5 6.5H170.5V60.5H6.5V6.5Z" fill="#F9F9F9" stroke="#D6D6D6"/>
<path d="M0.5 0.5H164.5V54.5H0.5V0.5Z" fill="#F9F9F9" stroke="#D6D6D6"/>
<path d="M43.8825 21.4V34H42.2085V22.984H36.4125V34H34.7385V21.4H43.8825ZM56.6841 34L55.6581 31.174H49.9881L48.9621 34H47.1801L51.8781 21.4H53.7681L58.4661 34H56.6841ZM50.5641 29.608H55.0821L52.8141 23.398L50.5641 29.608ZM66.3245 21.4C67.4885 21.4 68.4545 21.79 69.2225 22.57C70.0025 23.338 70.3925 24.298 70.3925 25.45C70.3925 26.59 70.0025 27.55 69.2225 28.33C68.4545 29.11 67.4885 29.5 66.3245 29.5H63.4265V34H61.7525V21.4H66.3245ZM66.3245 27.934C67.0205 27.934 67.5965 27.7 68.0525 27.232C68.5085 26.752 68.7365 26.158 68.7365 25.45C68.7365 24.73 68.5085 24.136 68.0525 23.668C67.5965 23.2 67.0205 22.966 66.3245 22.966H63.4265V27.934H66.3245ZM81.9173 21.4V22.984H78.1913V34H76.5353V22.984H72.8273V21.4H81.9173ZM93.168 21.4H94.824V34H93.168V28.33H87.048V34H85.374V21.4H87.048V26.746H93.168V21.4ZM100.995 32.416H106.845V34H99.3205V21.4H106.755V22.984H100.995V26.854H106.305V28.42H100.995V32.416ZM115.237 21.4C116.401 21.4 117.367 21.79 118.135 22.57C118.915 23.338 119.305 24.298 119.305 25.45C119.305 26.59 118.915 27.55 118.135 28.33C117.367 29.11 116.401 29.5 115.237 29.5H112.339V34H110.665V21.4H115.237ZM115.237 27.934C115.933 27.934 116.509 27.7 116.965 27.232C117.421 26.752 117.649 26.158 117.649 25.45C117.649 24.73 117.421 24.136 116.965 23.668C116.509 23.2 115.933 22.966 115.237 22.966H112.339V27.934H115.237ZM129.738 21.4H131.43L127.38 31.012C126.924 32.092 126.342 32.878 125.634 33.37C124.926 33.85 124.062 34.06 123.042 34V32.452C123.738 32.524 124.302 32.422 124.734 32.146C125.166 31.87 125.526 31.396 125.814 30.724L125.94 30.436L121.674 21.4H123.366L126.714 28.6L129.738 21.4Z" fill="#333333"/>
</svg>
