<svg width="171" height="61" viewBox="0 0 171 61" fill="none" xmlns="http://www.w3.org/2000/svg">
<path d="M6.5 6.5H170.5V60.5H6.5V6.5Z" fill="#F9F9F9" stroke="#D6D6D6"/>
<path d="M0.5 0.5H164.5V54.5H0.5V0.5Z" fill="#F9F9F9" stroke="#D6D6D6"/>
<path d="M38.0693 21.4C39.2333 21.4 40.1993 21.79 40.9673 22.57C41.7473 23.338 42.1373 24.298 42.1373 25.45C42.1373 26.59 41.7473 27.55 40.9673 28.33C40.1993 29.11 39.2333 29.5 38.0693 29.5H35.1713V34H33.4973V21.4H38.0693ZM38.0693 27.934C38.7653 27.934 39.3413 27.7 39.7973 27.232C40.2533 26.752 40.4813 26.158 40.4813 25.45C40.4813 24.73 40.2533 24.136 39.7973 23.668C39.3413 23.2 38.7653 22.966 38.0693 22.966H35.1713V27.934H38.0693ZM47.5885 32.416H53.4385V34H45.9145V21.4H53.3485V22.984H47.5885V26.854H52.8985V28.42H47.5885V32.416ZM66.4934 32.416H67.8434V36.412H66.1694V34H57.8534V36.412H56.1794V32.416H57.2774C58.0574 31.444 58.4474 29.968 58.4474 27.988V21.4H66.4934V32.416ZM59.1674 32.416H64.8194V22.966H60.1214V28.024C60.1214 29.932 59.8034 31.396 59.1674 32.416ZM80.737 34H78.685L73.249 27.952V34H71.575V21.4H73.249V27.088L78.505 21.4H80.557L74.995 27.52L80.737 34ZM93.4311 32.326C92.1711 33.598 90.6291 34.234 88.8051 34.234C86.9811 34.234 85.4391 33.598 84.1791 32.326C82.9191 31.054 82.2891 29.512 82.2891 27.7C82.2891 25.876 82.9191 24.334 84.1791 23.074C85.4391 21.802 86.9811 21.166 88.8051 21.166C90.6291 21.166 92.1711 21.802 93.4311 23.074C94.7031 24.334 95.3391 25.876 95.3391 27.7C95.3391 29.512 94.7031 31.054 93.4311 32.326ZM85.3311 31.192C86.2671 32.128 87.4251 32.596 88.8051 32.596C90.1851 32.596 91.3371 32.128 92.2611 31.192C93.1971 30.244 93.6651 29.08 93.6651 27.7C93.6651 26.308 93.1971 25.144 92.2611 24.208C91.3371 23.26 90.1851 22.786 88.8051 22.786C87.4251 22.786 86.2671 23.26 85.3311 24.208C84.4071 25.144 83.9451 26.308 83.9451 27.7C83.9451 29.08 84.4071 30.244 85.3311 31.192ZM105.074 34.234C103.166 34.234 101.588 33.604 100.34 32.344C99.1036 31.084 98.4856 29.536 98.4856 27.7C98.4856 25.864 99.1036 24.316 100.34 23.056C101.588 21.796 103.166 21.166 105.074 21.166C106.226 21.166 107.282 21.442 108.242 21.994C109.214 22.546 109.97 23.29 110.51 24.226L109.052 25.072C108.692 24.376 108.152 23.824 107.432 23.416C106.724 22.996 105.938 22.786 105.074 22.786C103.622 22.786 102.434 23.254 101.51 24.19C100.598 25.126 100.142 26.296 100.142 27.7C100.142 29.092 100.598 30.256 101.51 31.192C102.434 32.128 103.622 32.596 105.074 32.596C105.938 32.596 106.724 32.392 107.432 31.984C108.152 31.564 108.692 31.012 109.052 30.328L110.51 31.156C109.982 32.092 109.232 32.842 108.26 33.406C107.288 33.958 106.226 34.234 105.074 34.234ZM122.129 21.4V22.984H118.403V34H116.747V22.984H113.039V21.4H122.129ZM130.158 25.9C131.322 25.9 132.288 26.29 133.056 27.07C133.836 27.85 134.226 28.81 134.226 29.95C134.226 31.102 133.836 32.068 133.056 32.848C132.288 33.616 131.322 34 130.158 34H125.586V21.4H127.26V25.9H130.158ZM130.158 32.434C130.854 32.434 131.43 32.2 131.886 31.732C132.342 31.264 132.57 30.67 132.57 29.95C132.57 29.242 132.342 28.654 131.886 28.186C131.43 27.706 130.854 27.466 130.158 27.466H127.26V32.434H130.158Z" fill="#333333"/>
</svg>
