<svg width="171" height="61" viewBox="0 0 171 61" fill="none" xmlns="http://www.w3.org/2000/svg">
<path d="M6.5 6.5H170.5V60.5H6.5V6.5Z" fill="#F9F9F9" stroke="#D6D6D6"/>
<path d="M0.5 0.5H164.5V54.5H0.5V0.5Z" fill="#F9F9F9" stroke="#D6D6D6"/>
<path d="M71.6864 34H69.7784L65.0084 27.952V34H63.3524V27.952L58.5824 34H56.6924L61.7324 27.556L56.8724 21.4H58.7624L63.3524 27.178V21.4H65.0084V27.178L69.5984 21.4H71.5064L66.6284 27.556L71.6864 34ZM76.8193 32.416H82.6693V34H75.1453V21.4H82.5793V22.984H76.8193V26.854H82.1293V28.42H76.8193V32.416ZM94.2842 21.4H95.9402V34H94.2842V28.33H88.1642V34H86.4902V21.4H88.1642V26.746H94.2842V21.4ZM102.111 32.416H107.961V34H100.437V21.4H107.871V22.984H102.111V26.854H107.421V28.42H102.111V32.416Z" fill="#333333"/>
</svg>
