<svg width="171" height="61" viewBox="0 0 171 61" fill="none" xmlns="http://www.w3.org/2000/svg">
<path d="M6.5 6.5H170.5V60.5H6.5V6.5Z" fill="#F9F9F9" stroke="#D6D6D6"/>
<path d="M0.5 0.5H164.5V54.5H0.5V0.5Z" fill="#F9F9F9" stroke="#D6D6D6"/>
<path d="M33.7622 34H31.7102L26.2742 27.952V34H24.6002V21.4H26.2742V27.088L31.5302 21.4H33.5822L28.0202 27.52L33.7622 34ZM46.4563 32.326C45.1963 33.598 43.6543 34.234 41.8303 34.234C40.0063 34.234 38.4643 33.598 37.2043 32.326C35.9443 31.054 35.3143 29.512 35.3143 27.7C35.3143 25.876 35.9443 24.334 37.2043 23.074C38.4643 21.802 40.0063 21.166 41.8303 21.166C43.6543 21.166 45.1963 21.802 46.4563 23.074C47.7283 24.334 48.3643 25.876 48.3643 27.7C48.3643 29.512 47.7283 31.054 46.4563 32.326ZM38.3563 31.192C39.2923 32.128 40.4503 32.596 41.8303 32.596C43.2103 32.596 44.3623 32.128 45.2863 31.192C46.2223 30.244 46.6903 29.08 46.6903 27.7C46.6903 26.308 46.2223 25.144 45.2863 24.208C44.3623 23.26 43.2103 22.786 41.8303 22.786C40.4503 22.786 39.2923 23.26 38.3563 24.208C37.4323 25.144 36.9703 26.308 36.9703 27.7C36.9703 29.08 37.4323 30.244 38.3563 31.192ZM50.3581 34V32.488C51.1861 32.608 51.8041 32.38 52.2121 31.804C52.6321 31.216 52.8421 30.13 52.8421 28.546V21.4H61.1581V34H59.4841V22.984H54.5161V28.546C54.5161 29.674 54.4081 30.622 54.1921 31.39C53.9881 32.146 53.6881 32.716 53.2921 33.1C52.9081 33.484 52.4761 33.748 51.9961 33.892C51.5281 34.024 50.9821 34.06 50.3581 34ZM64.5682 34V32.488C65.3962 32.608 66.0142 32.38 66.4222 31.804C66.8422 31.216 67.0522 30.13 67.0522 28.546V21.4H75.3682V34H73.6942V22.984H68.7262V28.546C68.7262 29.674 68.6182 30.622 68.4022 31.39C68.1982 32.146 67.8982 32.716 67.5022 33.1C67.1182 33.484 66.6862 33.748 66.2062 33.892C65.7382 34.024 65.1922 34.06 64.5682 34ZM81.5504 32.416H87.4004V34H79.8764V21.4H87.3104V22.984H81.5504V26.854H86.8604V28.42H81.5504V32.416ZM100.383 34H98.3313L92.8953 27.952V34H91.2213V21.4H92.8953V27.088L98.1513 21.4H100.203L94.6413 27.52L100.383 34ZM112.818 32.416H114.168V36.412H112.494V34H103.674V21.4H105.348V32.416H111.144V21.4H112.818V32.416ZM125.731 34V24.604L119.251 34H117.901V21.4H119.575V30.814L126.055 21.4H127.405V34H125.731ZM139.731 34V24.604L133.251 34H131.901V21.4H133.575V30.814L140.055 21.4H141.405V34H139.731Z" fill="#333333"/>
</svg>
