<svg width="26" height="26" viewBox="0 0 26 26" fill="none" xmlns="http://www.w3.org/2000/svg">
<path d="M23.8953 7.52376C23.7658 7.04279 23.5123 6.60426 23.1601 6.25206C22.8079 5.89986 22.3694 5.64634 21.8884 5.51688C20.1171 5.03751 12.9996 5.03751 12.9996 5.03751C12.9996 5.03751 5.88213 5.03751 4.11088 5.51688C3.62992 5.64634 3.19139 5.89986 2.83919 6.25206C2.48699 6.60426 2.23347 7.04279 2.10401 7.52376C1.77328 9.33016 1.61278 11.1636 1.62463 13C1.61278 14.8364 1.77328 16.6699 2.10401 18.4763C2.23347 18.9572 2.48699 19.3957 2.83919 19.7479C3.19139 20.1001 3.62992 20.3537 4.11088 20.4831C5.88213 20.9625 12.9996 20.9625 12.9996 20.9625C12.9996 20.9625 20.1171 20.9625 21.8884 20.4831C22.3694 20.3537 22.8079 20.1001 23.1601 19.7479C23.5123 19.3957 23.7658 18.9572 23.8953 18.4763C24.226 16.6699 24.3865 14.8364 24.3746 13C24.3865 11.1636 24.226 9.33016 23.8953 7.52376ZM10.7246 16.4125V9.58751L16.6315 13L10.7246 16.4125Z" fill="#333333"/>
</svg>
