<svg width="24" height="14" viewBox="0 0 24 14" fill="none" xmlns="http://www.w3.org/2000/svg">
<path fill-rule="evenodd" clip-rule="evenodd" d="M21.3625 9.75758C21.3625 9.75758 23.3029 11.674 23.7829 12.5608C23.7922 12.5736 23.7995 12.5877 23.8045 12.6028C24.0001 12.9304 24.0481 13.1872 23.9521 13.3768C23.7901 13.69 23.2417 13.8472 23.0557 13.8604H19.6261C19.3873 13.8604 18.8905 13.798 18.2857 13.3804C17.8237 13.0576 17.3641 12.526 16.9189 12.0064C16.2541 11.2348 15.6793 10.5652 15.0973 10.5652C15.0238 10.565 14.9508 10.5772 14.8813 10.6012C14.4409 10.7404 13.8817 11.368 13.8817 13.0396C13.8817 13.5628 13.4689 13.8604 13.1797 13.8604H11.6089C11.0737 13.8604 8.28731 13.6732 5.81651 11.068C2.78891 7.87837 0.0697081 1.47997 0.0433081 1.42357C-0.125892 1.00957 0.229308 0.783973 0.613308 0.783973H4.07651C4.54091 0.783973 4.69211 1.06477 4.79771 1.31677C4.92011 1.60597 5.37371 2.76277 6.11771 4.06237C7.32251 6.17677 8.06291 7.03717 8.65451 7.03717C8.76566 7.0375 8.87492 7.00853 8.97131 6.95317C9.74411 6.52837 9.60011 3.76837 9.56411 3.19957C9.56411 3.08917 9.56291 1.96717 9.16691 1.42477C8.88371 1.03597 8.40131 0.884772 8.10971 0.829572C8.18771 0.716772 8.35331 0.543972 8.56571 0.441972C9.09491 0.177972 10.0513 0.139572 11.0005 0.139572H11.5273C12.5569 0.153972 12.8233 0.219972 13.1977 0.314772C13.9513 0.494772 13.9657 0.983173 13.8997 2.64637C13.8805 3.12157 13.8601 3.65677 13.8601 4.28677C13.8601 4.42117 13.8541 4.57117 13.8541 4.72357C13.8313 5.57677 13.8013 6.53797 14.4037 6.93277C14.4818 6.98145 14.5721 7.00722 14.6641 7.00717C14.8729 7.00717 15.4981 7.00717 17.1937 4.09717C17.9377 2.81197 18.5137 1.29637 18.5533 1.18237C18.5869 1.11877 18.6877 0.939972 18.8101 0.867972C18.8972 0.821646 18.9947 0.798505 19.0933 0.800772H23.1673C23.6113 0.800772 23.9125 0.867973 23.9713 1.03597C24.0697 1.30837 23.9521 2.13997 22.0921 4.65517C21.7789 5.07397 21.5041 5.43637 21.2629 5.75317C19.5769 7.96597 19.5769 8.07757 21.3625 9.75758Z" fill="#333333"/>
</svg>
