<svg width="14" height="16" viewBox="0 0 14 16" fill="none" xmlns="http://www.w3.org/2000/svg">
<path d="M4.70958 1.63C4.70958 1.41333 4.73158 1.28333 5.10291 1.28333H10.0796C10.9462 1.28333 11.4262 2.02333 11.7729 3.412L12.0529 4.52267H12.8996C13.0529 1.37067 13.1862 0 13.1862 0C13.1862 0 11.0556 0.24 9.79291 0.24H3.42691L0.0175781 0.130667V1.044L1.16758 1.26133C1.97424 1.42133 2.16758 1.592 2.23424 2.332C2.23424 2.332 2.30758 4.512 2.30758 8.092C2.30758 11.682 2.24758 13.832 2.24758 13.832C2.24758 14.4807 1.98758 14.7207 1.18758 14.8807L0.0395781 15.1007V16L3.45958 15.89H9.15958C10.4496 15.89 13.4196 16 13.4196 16C13.4896 15.22 13.9196 11.68 13.9896 11.2907H13.1896L12.3336 13.2307C11.6636 14.7507 10.6829 14.8607 9.59358 14.8607H6.32291C5.23624 14.8607 4.71291 14.434 4.71291 13.494V8.53333C4.71291 8.53333 7.12624 8.53333 7.90624 8.59733C8.51424 8.64 8.88158 8.814 9.07958 9.66267L9.33958 10.7927H10.2796L10.2196 7.94067L10.3476 5.07067H9.42024L9.12024 6.33067C8.93158 7.16 8.80024 7.31067 7.95091 7.39733C6.84024 7.51067 4.74091 7.49067 4.74091 7.49067V1.63333H4.70758L4.70958 1.63Z" fill="#333333"/>
</svg>
