<svg width="171" height="61" viewBox="0 0 171 61" fill="none" xmlns="http://www.w3.org/2000/svg">
<path d="M6.5 6.5H170.5V60.5H6.5V6.5Z" fill="#F9F9F9" stroke="#D6D6D6"/>
<path d="M0.5 0.5H164.5V54.5H0.5V0.5Z" fill="#F9F9F9" stroke="#D6D6D6"/>
<path d="M67.2154 21.4V34H65.5594V24.154L61.4374 31.012H61.2214L57.0994 24.172V34H55.4254V21.4H57.3154L61.3294 28.06L65.3254 21.4H67.2154ZM78.9278 21.4H80.6198L76.5698 31.012C76.1138 32.092 75.5318 32.878 74.8238 33.37C74.1158 33.85 73.2518 34.06 72.2318 34V32.452C72.9278 32.524 73.4918 32.422 73.9238 32.146C74.3558 31.87 74.7158 31.396 75.0038 30.724L75.1298 30.436L70.8638 21.4H72.5558L75.9038 28.6L78.9278 21.4ZM97.7258 34H95.8178L91.0478 27.952V34H89.3918V27.952L84.6218 34H82.7318L87.7718 27.556L82.9118 21.4H84.8018L89.3918 27.178V21.4H91.0478V27.178L95.6378 21.4H97.5458L92.6678 27.556L97.7258 34ZM108.051 21.4H109.743L105.693 31.012C105.237 32.092 104.655 32.878 103.947 33.37C103.239 33.85 102.375 34.06 101.355 34V32.452C102.051 32.524 102.615 32.422 103.047 32.146C103.479 31.87 103.839 31.396 104.127 30.724L104.253 30.436L99.9872 21.4H101.679L105.027 28.6L108.051 21.4Z" fill="#333333"/>
</svg>
